<svg width="41" height="40" viewBox="0 0 41 40" fill="none" xmlns="http://www.w3.org/2000/svg">
<g clip-path="url(#clip0_647_322)">
<path d="M4.86373 2.18188C4.06187 2.18188 3.40918 2.83423 3.40918 3.63643C3.40918 4.43863 4.06187 5.09098 4.86373 5.09098C5.66558 5.09098 6.31827 4.43863 6.31827 3.63643C6.31827 2.83423 5.66558 2.18188 4.86373 2.18188Z" fill="white"/>
<path d="M28.7759 4.57675C29.1736 4.63472 29.4486 5.00387 29.3906 5.40131C29.3327 5.79875 28.9638 6.07406 28.5661 6.01608L27.1267 5.80629L26.6022 9.40463L30.2006 9.92911L31.0921 3.81263C31.2367 2.82028 30.5476 1.89516 29.5553 1.75052C28.5629 1.60588 27.6384 2.2958 27.4938 3.28815L27.3365 4.36695L28.7759 4.57675Z" fill="white"/>
<path d="M28.6427 24.1326C28.3578 23.9942 28.1951 23.6873 28.2409 23.3736L29.9902 11.3718L26.3919 10.8473L25.8679 14.4422L27.3072 14.652C27.705 14.7099 27.9799 15.0791 27.922 15.4765C27.8641 15.874 27.4952 16.1493 27.0974 16.0913L25.6581 15.8815L25.1336 19.4798L26.573 19.6896C26.9707 19.7476 27.2457 20.1168 27.1877 20.5142C27.1298 20.9116 26.761 21.1869 26.3632 21.129L24.9238 20.9192L24.6425 22.8491C24.5968 23.1629 24.3533 23.4105 24.0408 23.4619C20.7518 24.0009 18.221 26.5669 17.7429 29.8468C17.1397 33.9853 20.0386 37.8461 24.2055 38.4535C28.3724 39.0608 32.2528 36.1881 32.856 32.0497C33.334 28.7697 31.641 25.5881 28.6427 24.1326Z" fill="#D0E8FF"/>
<path d="M29.7548 23.0729L31.4302 11.5783L31.5346 10.8621L32.5315 4.02244C32.7919 2.23628 31.551 0.571492 29.7651 0.311198C27.9793 0.0509045 26.3148 1.29221 26.0545 3.07838L25.0576 9.91803L24.9532 10.6342L23.2778 22.1289C19.62 22.9479 16.8478 25.9046 16.3037 29.6372C15.5849 34.5691 19.0355 39.1699 23.9959 39.8929C28.9562 40.616 33.5766 37.1915 34.2954 32.2596C34.8395 28.527 33.0266 24.902 29.7548 23.0729ZM29.5553 1.75053C30.5477 1.89518 31.2368 2.8203 31.0922 3.81265L30.2007 9.92912L26.6023 9.40465L27.1268 5.8063L28.5661 6.0161C28.9639 6.07407 29.3328 5.79876 29.3907 5.40132C29.4486 5.00389 29.1737 4.63474 28.7759 4.57676L27.3366 4.36697L27.4938 3.28817C27.6385 2.29582 28.563 1.60589 29.5553 1.75053ZM24.2057 38.4536C20.0387 37.8463 17.1399 33.9854 17.7431 29.847C18.2211 26.567 20.7519 24.0011 24.0409 23.462C24.3534 23.4107 24.597 23.163 24.6427 22.8492L24.924 20.9193L26.3633 21.1291C26.7611 21.1871 27.13 20.9118 27.1879 20.5144C27.2458 20.1169 26.9709 19.7478 26.5731 19.6898L25.1338 19.48L25.6583 15.8817L27.0976 16.0915C27.4954 16.1494 27.8642 15.8741 27.9222 15.4767C27.9801 15.0792 27.7052 14.7101 27.3074 14.6521L25.8681 14.4423L26.392 10.8475L29.9904 11.372L28.241 23.3737C28.1953 23.6875 28.358 23.9944 28.6429 24.1328C31.6411 25.5883 33.3342 28.7698 32.8561 32.0498C32.2529 36.1883 28.3726 39.061 24.2057 38.4536Z" fill="#1C71DA"/>
<path d="M18.8652 17.0561C17.5818 18.5043 15.7374 19.3349 13.8041 19.3349C10.0776 19.3349 7.04561 16.3033 7.04561 12.5767C7.04561 8.85016 10.0776 5.81819 13.8041 5.81819C15.7182 5.81819 17.5499 6.63459 18.8304 8.05825C19.0989 8.35725 19.5577 8.38105 19.8574 8.11294C20.1557 7.84412 20.1805 7.38459 19.9114 7.08596C18.356 5.35583 16.1301 4.36365 13.8041 4.36365C9.27572 4.36365 5.59106 8.04796 5.59106 12.5767C5.59106 17.1051 9.27572 20.7894 13.8041 20.7894C16.1536 20.7894 18.3943 19.7802 19.9533 18.0206C20.2196 17.7202 20.1919 17.2603 19.8915 16.994C19.5918 16.7284 19.1316 16.7553 18.8652 17.0561Z" fill="#1C71DA"/>
<path d="M7.77277 3.63639C7.77277 2.03233 6.46808 0.727295 4.86368 0.727295C3.25928 0.727295 1.95459 2.03233 1.95459 3.63639C1.95459 5.24044 3.25928 6.54548 4.86368 6.54548C6.46808 6.54548 7.77277 5.24044 7.77277 3.63639ZM4.86368 5.09093C4.06183 5.09093 3.40914 4.43859 3.40914 3.63639C3.40914 2.83419 4.06183 2.18184 4.86368 2.18184C5.66554 2.18184 6.31823 2.83419 6.31823 3.63639C6.31823 4.43859 5.66554 5.09093 4.86368 5.09093Z" fill="#1C71DA"/>
<path d="M35.4792 12.1513C35.2932 12.1513 35.1071 12.0803 34.965 11.9383C34.6809 11.6542 34.6809 11.1937 34.965 10.9097L37.5364 8.33842C37.8201 8.05451 38.2807 8.05451 38.5648 8.33842C38.8489 8.62251 38.8489 9.083 38.5648 9.367L35.9934 11.9383C35.8515 12.0802 35.6653 12.1513 35.4792 12.1513Z" fill="#FF5D5D"/>
<path d="M38.0506 12.151C37.8645 12.151 37.6783 12.08 37.5364 11.938L34.965 9.36664C34.6809 9.08254 34.6809 8.62214 34.965 8.33805C35.2487 8.05414 35.7097 8.05414 35.9934 8.33805L38.5648 10.9094C38.8489 11.1935 38.8489 11.6539 38.5648 11.938C38.4229 12.08 38.2367 12.151 38.0506 12.151Z" fill="#FF5D5D"/>
<path d="M4.54545 39.0909C3.14187 39.0909 2 37.949 2 36.5455C2 35.1419 3.14187 34 4.54545 34C5.94904 34 7.09091 35.1419 7.09091 36.5455C7.09091 37.949 5.94904 39.0909 4.54545 39.0909ZM4.54545 35.4545C3.94389 35.4545 3.45455 35.9439 3.45455 36.5455C3.45455 37.147 3.94389 37.6364 4.54545 37.6364C5.14702 37.6364 5.63636 37.147 5.63636 36.5455C5.63636 35.9439 5.14702 35.4545 4.54545 35.4545Z" fill="#00D40B"/>
<path d="M11.3543 31.5377C11.1683 31.5377 10.982 31.4667 10.8401 31.3248L8.78314 29.2678C8.49905 28.9837 8.49905 28.5233 8.78314 28.2392L10.8401 26.1822C11.1239 25.8983 11.5848 25.8983 11.8685 26.1822L13.9255 28.2392C14.2096 28.5233 14.2096 28.9837 13.9255 29.2678L11.8685 31.3248C11.7267 31.4667 11.5404 31.5377 11.3543 31.5377ZM10.3259 28.7535L11.3543 29.782L12.3827 28.7535L11.3543 27.725L10.3259 28.7535Z" fill="#FFC504"/>
</g>
<defs>
<clipPath id="clip0_647_322">
<rect width="40" height="40" fill="white" transform="translate(0.5)"/>
</clipPath>
</defs>
</svg>
