<svg width="41" height="40" viewBox="0 0 41 40" fill="none" xmlns="http://www.w3.org/2000/svg">
<g clip-path="url(#clip0_649_354)">
<path d="M18.1157 22.1583C18.1157 23.3837 19.1125 24.3805 20.3379 24.3805C21.5634 24.3805 22.5602 23.3837 22.5602 22.1583C22.5602 21.3618 21.3977 19.5429 20.3379 18.1605C19.2782 19.544 18.1157 21.3633 18.1157 22.1583Z" fill="#D0E8FF"/>
<path d="M8.85645 22.1583C8.85645 23.3837 9.85326 24.3805 11.0787 24.3805C12.3041 24.3805 13.3009 23.3837 13.3009 22.1583C13.3009 21.3618 12.1384 19.5429 11.0787 18.1605C10.0189 19.544 8.85645 21.3633 8.85645 22.1583Z" fill="#D0E8FF"/>
<path d="M8.85645 10.3065C8.85645 11.5319 9.85326 12.5287 11.0787 12.5287C12.3041 12.5287 13.3009 11.5319 13.3009 10.3065C13.3009 9.51003 12.1384 7.6911 11.0787 6.30872C10.0189 7.69218 8.85645 9.51147 8.85645 10.3065Z" fill="#D0E8FF"/>
<path d="M29.9676 12.5287C31.193 12.5287 32.1898 11.5319 32.1898 10.3065C32.1898 9.51003 31.0273 7.6911 29.9676 6.30872C28.9078 7.69218 27.7454 9.51147 27.7454 10.3065C27.7454 11.5319 28.7422 12.5287 29.9676 12.5287Z" fill="#D0E8FF"/>
<path d="M8.85645 34.0102C8.85645 35.2356 9.85326 36.2324 11.0787 36.2324C12.3041 36.2324 13.3009 35.2356 13.3009 34.0102C13.3009 33.2138 12.1384 31.3952 11.0787 30.0121C10.0189 31.3959 8.85645 33.2152 8.85645 34.0102Z" fill="#D0E8FF"/>
<path d="M18.1157 34.0102C18.1157 35.2356 19.1125 36.2324 20.3379 36.2324C21.5634 36.2324 22.5602 35.2356 22.5602 34.0102C22.5602 33.2138 21.3977 31.3952 20.3379 30.0121C19.2782 31.3959 18.1157 33.2152 18.1157 34.0102Z" fill="#D0E8FF"/>
<path d="M27.7454 22.1583C27.7454 23.3837 28.7422 24.3805 29.9676 24.3805C31.193 24.3805 32.1898 23.3837 32.1898 22.1583C32.1898 21.3618 31.0273 19.5429 29.9676 18.1605C28.9078 19.544 27.7454 21.3633 27.7454 22.1583Z" fill="#D0E8FF"/>
<path d="M27.7454 34.0102C27.7454 35.2356 28.7422 36.2324 29.9676 36.2324C31.193 36.2324 32.1898 35.2356 32.1898 34.0102C32.1898 33.2138 31.0273 31.3952 29.9676 30.0121C28.9078 31.3959 27.7454 33.2152 27.7454 34.0102Z" fill="#D0E8FF"/>
<path d="M18.1157 10.3065C18.1157 11.5319 19.1125 12.5287 20.3379 12.5287C21.5634 12.5287 22.5602 11.5319 22.5602 10.3065C22.5602 9.51003 21.3977 7.6911 20.3379 6.30872C19.2782 7.69218 18.1157 9.51147 18.1157 10.3065Z" fill="#D0E8FF"/>
<path d="M10.5101 4.64637C9.98641 5.27354 7.375 8.4933 7.375 10.3065C7.375 12.3486 9.03661 14.0102 11.0787 14.0102C13.1208 14.0102 14.7824 12.3486 14.7824 10.3065C14.7824 8.49332 12.171 5.27356 11.6473 4.64637C11.3652 4.30928 10.7922 4.30928 10.5101 4.64637ZM11.0787 12.5287C9.8533 12.5287 8.85648 11.5319 8.85648 10.3065C8.85648 9.51147 10.0189 7.69217 11.0787 6.30871C12.1385 7.69108 13.3009 9.51002 13.3009 10.3065C13.3009 11.5319 12.3041 12.5287 11.0787 12.5287Z" fill="#1C71DA"/>
<path d="M10.5101 16.4982C9.98641 17.1253 7.375 20.3451 7.375 22.1583C7.375 24.2004 9.03661 25.862 11.0787 25.862C13.1208 25.862 14.7824 24.2004 14.7824 22.1583C14.7824 20.3451 12.171 17.1254 11.6473 16.4982C11.3652 16.1611 10.7922 16.1611 10.5101 16.4982ZM11.0787 24.3805C9.8533 24.3805 8.85648 23.3837 8.85648 22.1583C8.85648 21.3633 10.0189 19.544 11.0787 18.1605C12.1385 19.5429 13.3009 21.3618 13.3009 22.1583C13.3009 23.3837 12.3041 24.3805 11.0787 24.3805Z" fill="#1C71DA"/>
<path d="M10.5101 28.3505C9.98641 28.9776 7.375 32.1974 7.375 34.0102C7.375 36.0523 9.03661 37.7139 11.0787 37.7139C13.1208 37.7139 14.7824 36.0523 14.7824 34.0102C14.7824 32.1974 12.171 28.9776 11.6473 28.3505C11.3652 28.0134 10.7922 28.0134 10.5101 28.3505ZM11.0787 36.2324C9.8533 36.2324 8.85648 35.2356 8.85648 34.0102C8.85648 33.2152 10.0189 31.3959 11.0787 30.0121C12.1385 31.3952 13.3009 33.2138 13.3009 34.0102C13.3009 35.2356 12.3041 36.2324 11.0787 36.2324Z" fill="#1C71DA"/>
<path d="M19.7694 4.64637C19.2457 5.27354 16.6343 8.4933 16.6343 10.3065C16.6343 12.3486 18.2959 14.0102 20.338 14.0102C22.3801 14.0102 24.0417 12.3486 24.0417 10.3065C24.0417 8.49332 21.4303 5.27356 20.9066 4.64637C20.6244 4.30928 20.0515 4.30928 19.7694 4.64637ZM20.338 12.5287C19.1126 12.5287 18.1158 11.5319 18.1158 10.3065C18.1158 9.51147 19.2782 7.69217 20.338 6.30871C21.3977 7.69108 22.5602 9.51002 22.5602 10.3065C22.5602 11.5319 21.5634 12.5287 20.338 12.5287Z" fill="#1C71DA"/>
<path d="M19.7694 16.4982C19.2457 17.1253 16.6343 20.3451 16.6343 22.1583C16.6343 24.2004 18.2959 25.862 20.338 25.862C22.3801 25.862 24.0417 24.2004 24.0417 22.1583C24.0417 20.3451 21.4303 17.1254 20.9066 16.4982C20.6244 16.1611 20.0515 16.1611 19.7694 16.4982ZM20.338 24.3805C19.1126 24.3805 18.1158 23.3837 18.1158 22.1583C18.1158 21.3633 19.2782 19.544 20.338 18.1605C21.3977 19.5429 22.5602 21.3618 22.5602 22.1583C22.5602 23.3837 21.5634 24.3805 20.338 24.3805Z" fill="#1C71DA"/>
<path d="M19.7694 28.3505C19.2457 28.9776 16.6343 32.1974 16.6343 34.0102C16.6343 36.0523 18.2959 37.7139 20.338 37.7139C22.3801 37.7139 24.0417 36.0523 24.0417 34.0102C24.0417 32.1974 21.4303 28.9776 20.9066 28.3505C20.6244 28.0134 20.0515 28.0134 19.7694 28.3505ZM20.338 36.2324C19.1126 36.2324 18.1158 35.2356 18.1158 34.0102C18.1158 33.2152 19.2782 31.3959 20.338 30.0121C21.3977 31.3952 22.5602 33.2138 22.5602 34.0102C22.5602 35.2356 21.5634 36.2324 20.338 36.2324Z" fill="#1C71DA"/>
<path d="M29.9676 14.0102C32.0097 14.0102 33.6713 12.3486 33.6713 10.3065C33.6713 8.49332 31.0599 5.27356 30.5362 4.64637C30.2541 4.30928 29.6812 4.30928 29.399 4.64637C28.8753 5.27354 26.2639 8.4933 26.2639 10.3065C26.2639 12.3486 27.9255 14.0102 29.9676 14.0102ZM29.9676 6.30871C31.0274 7.69108 32.1898 9.51002 32.1898 10.3065C32.1898 11.5319 31.193 12.5287 29.9676 12.5287C28.7422 12.5287 27.7454 11.5319 27.7454 10.3065C27.7454 9.51147 28.9079 7.69217 29.9676 6.30871Z" fill="#1C71DA"/>
<path d="M29.399 16.4982C28.8753 17.1253 26.2639 20.3451 26.2639 22.1583C26.2639 24.2004 27.9255 25.862 29.9676 25.862C32.0097 25.862 33.6713 24.2004 33.6713 22.1583C33.6713 20.3451 31.0599 17.1254 30.5362 16.4982C30.2541 16.1611 29.6812 16.1611 29.399 16.4982ZM29.9676 24.3805C28.7422 24.3805 27.7454 23.3837 27.7454 22.1583C27.7454 21.3633 28.9079 19.544 29.9676 18.1605C31.0274 19.5429 32.1898 21.3618 32.1898 22.1583C32.1898 23.3837 31.193 24.3805 29.9676 24.3805Z" fill="#1C71DA"/>
<path d="M29.399 28.3505C28.8753 28.9776 26.2639 32.1974 26.2639 34.0102C26.2639 36.0523 27.9255 37.7139 29.9676 37.7139C32.0097 37.7139 33.6713 36.0523 33.6713 34.0102C33.6713 32.1974 31.0599 28.9776 30.5362 28.3505C30.2541 28.0134 29.6812 28.0134 29.399 28.3505ZM29.9676 36.2324C28.7422 36.2324 27.7454 35.2356 27.7454 34.0102C27.7454 33.2152 28.9079 31.3959 29.9676 30.0121C31.0274 31.3952 32.1898 33.2138 32.1898 34.0102C32.1898 35.2356 31.193 36.2324 29.9676 36.2324Z" fill="#1C71DA"/>
<path d="M36.0557 6.38647C35.8662 6.38647 35.6766 6.31414 35.532 6.16954C35.2426 5.88019 35.2426 5.41117 35.532 5.12192L38.151 2.50301C38.4399 2.21384 38.9091 2.21384 39.1984 2.50301C39.4878 2.79236 39.4878 3.26138 39.1984 3.55064L36.5794 6.16954C36.4349 6.31414 36.2452 6.38647 36.0557 6.38647Z" fill="#FF5D5D"/>
<path d="M38.6747 6.38645C38.4852 6.38645 38.2956 6.31412 38.151 6.16953L35.532 3.55064C35.2426 3.26138 35.2426 2.79236 35.532 2.50301C35.8209 2.21384 36.2901 2.21384 36.5794 2.50301L39.1984 5.12192C39.4878 5.41117 39.4878 5.88019 39.1984 6.16955C39.0539 6.31412 38.8642 6.38645 38.6747 6.38645Z" fill="#FF5D5D"/>
<path d="M37.9073 27.8679C36.4777 27.8679 35.3147 26.7049 35.3147 25.2753C35.3147 23.8458 36.4777 22.6827 37.9073 22.6827C39.3369 22.6827 40.4999 23.8458 40.4999 25.2753C40.4999 26.7049 39.3369 27.8679 37.9073 27.8679ZM37.9073 24.1642C37.2946 24.1642 36.7962 24.6626 36.7962 25.2753C36.7962 25.888 37.2946 26.3864 37.9073 26.3864C38.52 26.3864 39.0184 25.888 39.0184 25.2753C39.0184 24.6626 38.52 24.1642 37.9073 24.1642Z" fill="#00D40B"/>
<path d="M3.33583 28.3545C3.14631 28.3545 2.95659 28.2821 2.81211 28.1375L0.717014 26.0424C0.427662 25.7532 0.427662 25.2841 0.717014 24.9949L2.81211 22.8996C2.951 22.7607 3.13944 22.6826 3.33583 22.6826C3.53222 22.6826 3.72066 22.7607 3.85955 22.8996L5.95464 24.9949C6.244 25.2841 6.244 25.7532 5.95464 26.0424L3.85955 28.1375C3.71505 28.2821 3.52535 28.3545 3.33583 28.3545ZM2.28818 25.5186L3.33581 26.5661L4.38344 25.5186L3.33581 24.471L2.28818 25.5186Z" fill="#FFC504"/>
</g>
<defs>
<clipPath id="clip0_649_354">
<rect width="40" height="40" fill="white" transform="translate(0.5)"/>
</clipPath>
</defs>
</svg>
