<svg width="41" height="40" viewBox="0 0 41 40" fill="none" xmlns="http://www.w3.org/2000/svg">
<g clip-path="url(#clip0_647_278)">
<path d="M19.4271 31.5619C19.3626 31.5619 19.2987 31.564 19.2356 31.5668C19.0392 31.5786 18.8518 31.505 18.7117 31.3711C18.5715 31.2371 18.4917 31.0512 18.4917 30.8569C18.4917 28.0597 16.088 25.7885 13.1332 25.7885C10.7836 25.7885 8.73024 27.2096 8.02245 29.3247C7.91696 29.6376 7.60401 29.8437 7.28133 29.8063C7.13561 29.7924 6.9885 29.7854 6.8393 29.7854C4.38073 29.7854 2.38013 31.7576 2.38013 34.1822C2.38013 36.6706 4.50007 38.6718 7.0329 38.5747C7.06967 38.5719 7.10992 38.574 7.14877 38.5789H19.5617C19.5791 38.5768 19.5964 38.5754 19.6138 38.574C21.5054 38.4782 22.9869 36.9391 22.9869 35.0704C22.9869 33.1357 21.3902 31.5619 19.4271 31.5619Z" fill="#5CB0FF"/>
<path d="M21.3861 18.6778C21.4035 18.6791 21.4215 18.6805 21.4389 18.6826H33.8532C33.8803 18.6791 33.9073 18.6778 33.9351 18.6778C33.9455 18.6778 33.9566 18.6778 33.967 18.6785C36.4894 18.7888 38.6191 16.7743 38.6198 14.2859C38.6198 11.8613 36.6192 9.8892 34.1606 9.8892C34.0114 9.8892 33.8636 9.89615 33.7186 9.91002C33.3994 9.93777 33.0822 9.74279 32.9774 9.42845C32.2696 7.31337 30.2163 5.89221 27.8667 5.89221C24.912 5.89221 22.5082 8.16344 22.5082 10.9551C22.5082 11.1494 22.4284 11.3381 22.2882 11.4721C22.1473 11.606 21.9572 11.6803 21.7643 11.6705C21.7011 11.6678 21.6373 11.6657 21.5728 11.6657C19.6097 11.6657 18.0129 13.2395 18.0129 15.1742C18.013 17.0429 19.4945 18.582 21.3861 18.6778Z" fill="#D0E8FF"/>
<path d="M19.8747 30.1602C19.5132 26.9085 16.6278 24.3673 13.1332 24.3673C10.3624 24.3673 7.91213 25.9529 6.86985 28.3643C6.85944 28.3643 6.84973 28.3643 6.83932 28.3643C3.5966 28.3643 0.958984 30.9742 0.958984 34.1822C0.958984 37.3902 3.5966 40.0001 6.83932 40.0001C6.89552 40.0001 6.95173 39.9994 7.00724 39.998C7.02598 39.9994 7.0454 40.0001 7.06414 40.0001H19.6513C19.695 40.0001 19.738 39.9959 19.7803 39.9876C22.3832 39.8072 24.4081 37.665 24.4081 35.0704C24.4081 32.5015 22.4124 30.385 19.8747 30.1602ZM19.6138 38.5741C19.5964 38.5754 19.5791 38.5768 19.5617 38.5789H7.14881C7.10994 38.5741 7.0697 38.572 7.03293 38.5747C4.5001 38.6719 2.38016 36.6706 2.38016 34.1822C2.38016 31.7576 4.38075 29.7855 6.83933 29.7855C6.98852 29.7855 7.13564 29.7924 7.28137 29.8063C7.60404 29.8438 7.917 29.6377 8.02248 29.3247C8.73029 27.2097 10.7836 25.7885 13.1332 25.7885C16.088 25.7885 18.4917 28.0597 18.4917 30.8569C18.4917 31.0512 18.5715 31.2372 18.7117 31.3711C18.8519 31.505 19.0393 31.5786 19.2356 31.5668C19.2988 31.564 19.3626 31.562 19.4271 31.562C21.3903 31.562 22.987 33.1358 22.987 35.0704C22.987 36.9392 21.5054 38.4783 19.6138 38.5741Z" fill="#1C71DA"/>
<path d="M21.2154 20.0913C21.2591 20.0997 21.3029 20.1038 21.348 20.1038H33.9358C33.9545 20.1038 33.9739 20.1031 33.9927 20.1017C34.0482 20.1031 34.1044 20.1038 34.1606 20.1038C37.4033 20.1038 40.0409 17.494 40.0409 14.2859C40.0409 11.0779 37.4033 8.46808 34.1606 8.46808C34.1502 8.46808 34.1405 8.46808 34.1301 8.46808C33.0878 6.05669 30.6375 4.47107 27.8667 4.47107C24.3742 4.47107 21.4895 7.01015 21.1259 10.264C18.5882 10.4888 16.5918 12.6053 16.5918 15.1742C16.5918 17.7681 18.6146 19.9095 21.2154 20.0913ZM21.5728 11.6657C21.6373 11.6657 21.7012 11.6678 21.7643 11.6705C21.9572 11.6803 22.1473 11.606 22.2882 11.4721C22.4284 11.3381 22.5082 11.1494 22.5082 10.9551C22.5082 8.16344 24.9119 5.89221 27.8667 5.89221C30.2163 5.89221 32.2697 7.31337 32.9774 9.42845C33.0822 9.74279 33.3994 9.93779 33.7186 9.91002C33.8636 9.89615 34.0114 9.8892 34.1606 9.8892C36.6192 9.8892 38.6198 11.8613 38.6198 14.2859C38.6191 16.7743 36.4894 18.7888 33.967 18.6784C33.9566 18.6778 33.9455 18.6778 33.9351 18.6778C33.9073 18.6778 33.8803 18.6791 33.8532 18.6826H21.4389C21.4215 18.6805 21.4035 18.6791 21.3861 18.6778C19.4945 18.582 18.013 17.0429 18.013 15.1741C18.0129 13.2395 19.6097 11.6657 21.5728 11.6657Z" fill="#1C71DA"/>
<path d="M13.5435 19.9248L6.56744 20.8511C6.17884 20.9025 5.90473 21.2599 5.95678 21.6492C6.00396 22.0065 6.3093 22.2661 6.66041 22.2661C6.69164 22.2661 6.72287 22.264 6.75478 22.2598L14.5316 21.2272C14.7342 21.2002 14.9153 21.0878 15.0284 20.9178C15.1422 20.7484 15.1769 20.5375 15.1249 20.3404L13.1222 12.8079C13.0209 12.4283 12.6316 12.2035 12.2528 12.3034C11.8732 12.4047 11.6477 12.794 11.7483 13.1729L13.5435 19.9248Z" fill="#1C71DA"/>
<path d="M1.66894 19.4238C1.70017 19.4238 1.7314 19.4217 1.76331 19.4176L9.54081 18.385C9.74344 18.3579 9.92456 18.2455 10.0377 18.0755C10.1515 17.9062 10.1862 17.6952 10.1341 17.4982L8.13147 9.9656C8.03085 9.58603 7.64156 9.36328 7.26199 9.46113C6.88241 9.56244 6.65689 9.95173 6.75751 10.3306L8.5527 17.0825L1.57598 18.0089C1.18738 18.0602 0.913276 18.4176 0.965326 18.8069C1.01249 19.1643 1.31783 19.4238 1.66894 19.4238Z" fill="#1C71DA"/>
<path d="M26.0521 25.998L33.0288 25.0716C33.4174 25.0203 33.6915 24.6629 33.6395 24.2736C33.5881 23.8843 33.2301 23.6109 32.8415 23.663L25.064 24.6955C24.8613 24.7226 24.6802 24.835 24.5671 25.005C24.4533 25.1743 24.4186 25.3853 24.4706 25.5824L26.4733 33.1142C26.558 33.4327 26.8453 33.6423 27.1596 33.6423C27.22 33.6423 27.2817 33.6347 27.3428 33.6187C27.7224 33.5174 27.9479 33.1281 27.8473 32.7492L26.0521 25.998Z" fill="#1C71DA"/>
<path d="M37.8156 27.9265L30.0381 28.959C29.8355 28.9861 29.6543 29.0985 29.5412 29.2685C29.4274 29.4378 29.3927 29.6488 29.4448 29.8459L31.4474 37.3777C31.5321 37.6962 31.8194 37.9058 32.1337 37.9058C32.1941 37.9058 32.2559 37.8982 32.3169 37.8822C32.6965 37.7809 32.922 37.3916 32.8214 37.0127L31.0262 30.2615L38.0029 29.3351C38.3915 29.2838 38.6656 28.9264 38.6136 28.5371C38.5622 28.1478 38.2049 27.8765 37.8156 27.9265Z" fill="#1C71DA"/>
<path d="M33.7142 34.4631C33.5324 34.4631 33.3504 34.3937 33.2118 34.2549C32.9343 33.9775 32.9343 33.5275 33.2118 33.2501L35.7242 30.738C36.0018 30.4604 36.4518 30.4604 36.729 30.738C37.0066 31.0154 37.0066 31.4654 36.729 31.7428L34.2166 34.2549C34.0779 34.3937 33.8961 34.4631 33.7142 34.4631Z" fill="#FF5D5D"/>
<path d="M36.2266 34.4633C36.0448 34.4633 35.8628 34.3939 35.7242 34.2551L33.2118 31.7428C32.9343 31.4654 32.9343 31.0154 33.2118 30.738C33.4891 30.4604 33.9394 30.4604 34.2166 30.738L36.729 33.2503C37.0066 33.5277 37.0066 33.9777 36.729 34.2551C36.5904 34.3939 36.4084 34.4633 36.2266 34.4633Z" fill="#FF5D5D"/>
<path d="M28.385 14.9222C27.0136 14.9222 25.8979 13.8065 25.8979 12.4351C25.8979 11.0638 27.0136 9.94812 28.385 9.94812C29.7563 9.94812 30.872 11.0638 30.872 12.4351C30.872 13.8065 29.7564 14.9222 28.385 14.9222ZM28.385 11.3693C27.7972 11.3693 27.3191 11.8474 27.3191 12.4351C27.3191 13.0229 27.7972 13.501 28.385 13.501C28.9727 13.501 29.4508 13.0229 29.4508 12.4351C29.4508 11.8474 28.9727 11.3693 28.385 11.3693Z" fill="#00D40B"/>
<path d="M3.74795 5.44089C3.55956 5.44089 3.37878 5.36594 3.24555 5.2327L1.23577 3.22276C0.958195 2.94537 0.958195 2.49536 1.23577 2.21796L3.24555 0.208178C3.52277 -0.0693925 3.97313 -0.0693925 4.25035 0.208178L6.26013 2.21796C6.5377 2.49536 6.5377 2.94537 6.26013 3.22276L4.25035 5.23272C4.11711 5.36595 3.93636 5.44089 3.74795 5.44089ZM2.74298 2.72036L3.74795 3.72533L4.75292 2.72036L3.74795 1.71557L2.74298 2.72036Z" fill="#FFC504"/>
</g>
<defs>
<clipPath id="clip0_647_278">
<rect width="40" height="40" fill="white" transform="translate(0.5)"/>
</clipPath>
</defs>
</svg>
