<svg width="41" height="40" viewBox="0 0 41 40" fill="none" xmlns="http://www.w3.org/2000/svg">
<g clip-path="url(#clip0_649_378)">
<path d="M23.0688 6.90261V8.41204H17.854C18.215 10.5503 20.0747 12.1856 22.3141 12.1856C24.8112 12.1856 26.8424 10.1544 26.8424 7.65733C26.8424 5.16027 24.8112 3.12903 22.3141 3.12903C20.0747 3.12903 18.215 4.7644 17.854 6.90261H23.0688Z" fill="#D0E8FF"/>
<path d="M38.9179 22.7517H7.62406C6.569 22.7517 5.71036 21.7361 5.71036 20.4876C5.71036 19.239 6.569 18.2234 7.62406 18.2234C8.04085 18.2234 8.37877 17.8855 8.37877 17.4687C8.37877 17.0519 8.04085 16.714 7.62406 16.714C5.73653 16.714 4.20093 18.407 4.20093 20.4876C4.20093 22.2794 5.3423 23.7769 6.86404 24.16C6.97151 24.2188 7.08866 24.2612 7.21979 24.2612H38.9179C39.3347 24.2612 39.6726 23.9232 39.6726 23.5064C39.6726 23.0896 39.3347 22.7517 38.9179 22.7517Z" fill="#1C71DA"/>
<path d="M22.3141 13.6951C25.6432 13.6951 28.3518 10.9865 28.3518 7.65736C28.3518 4.32821 25.6432 1.61963 22.3141 1.61963C18.985 1.61963 16.2764 4.32821 16.2764 7.65736C16.2764 10.9865 18.985 13.6951 22.3141 13.6951ZM22.3141 3.12906C24.8112 3.12906 26.8424 5.16031 26.8424 7.65736C26.8424 10.1544 24.8112 12.1857 22.3141 12.1857C20.0747 12.1857 18.215 10.5503 17.854 8.41208H23.0688V6.90265H17.854C18.215 4.76444 20.0747 3.12906 22.3141 3.12906Z" fill="#1C71DA"/>
<path d="M34.4186 27.2799C34.8354 27.2799 35.1733 26.942 35.1733 26.5252C35.1733 26.1084 34.8354 25.7705 34.4186 25.7705H24.5782C24.1614 25.7705 23.8235 26.1084 23.8235 26.5252C23.8235 26.942 24.1614 27.2799 24.5782 27.2799H34.4186Z" fill="#1C71DA"/>
<path d="M10.9935 21.2422H33.635C34.0518 21.2422 34.3897 20.9043 34.3897 20.4875C34.3897 20.0707 34.0518 19.7328 33.635 19.7328H10.9935C10.5767 19.7328 10.2388 20.0707 10.2388 20.4875C10.2388 20.9043 10.5767 21.2422 10.9935 21.2422Z" fill="#1C71DA"/>
<path d="M36.2763 28.7894H14.7669C14.6358 28.7894 14.5186 28.8318 14.4112 28.8906C12.8894 29.2737 11.748 30.7712 11.748 32.563C11.748 34.6436 13.2837 36.3366 15.1712 36.3366C15.588 36.3366 15.9259 35.9987 15.9259 35.5819C15.9259 35.1651 15.588 34.8272 15.1712 34.8272C14.1161 34.8272 13.2575 33.8115 13.2575 32.563C13.2575 31.3145 14.1161 30.2989 15.1712 30.2989H36.2763C36.6931 30.2989 37.0311 29.9609 37.0311 29.5441C37.0311 29.1274 36.6931 28.7894 36.2763 28.7894Z" fill="#1C71DA"/>
<path d="M27.5972 31.8083H16.2764C15.8597 31.8083 15.5217 32.1463 15.5217 32.5631C15.5217 32.9799 15.8597 33.3178 16.2764 33.3178H27.5972C28.014 33.3178 28.3519 32.9799 28.3519 32.5631C28.3519 32.1463 28.014 31.8083 27.5972 31.8083Z" fill="#1C71DA"/>
<path d="M9.88822 31.8082C8.83316 31.8082 7.97452 30.7926 7.97452 29.5441C7.97452 28.2956 8.83316 27.2799 9.88822 27.2799H19.3244C19.7412 27.2799 20.0791 26.942 20.0791 26.5252C20.0791 26.1084 19.7412 25.7705 19.3244 25.7705H9.48395C9.3528 25.7705 9.23567 25.8128 9.1282 25.8717C7.60646 26.2548 6.46509 27.7523 6.46509 29.5441C6.46509 31.6247 8.00069 33.3177 9.88822 33.3177C10.305 33.3177 10.6429 32.9797 10.6429 32.563C10.6429 32.1462 10.305 31.8082 9.88822 31.8082Z" fill="#1C71DA"/>
<path d="M1.25474 11.2105C1.06155 11.2105 0.868434 11.1368 0.721038 10.9895C0.426321 10.6947 0.426321 10.2169 0.721038 9.92212L3.38936 7.2538C3.68417 6.95918 4.16194 6.95918 4.45675 7.2538C4.75147 7.54861 4.75147 8.02639 4.45675 8.3212L1.78843 10.9895C1.64104 11.1368 1.44792 11.2105 1.25474 11.2105Z" fill="#FF5D5D"/>
<path d="M3.92305 11.2105C3.72987 11.2105 3.53675 11.1368 3.38936 10.9895L0.721038 8.3212C0.426321 8.02639 0.426321 7.54861 0.721038 7.2538C1.01585 6.95918 1.49362 6.95918 1.78843 7.2538L4.45675 9.92212C4.75147 10.2169 4.75147 10.6947 4.45675 10.9895C4.30936 11.1368 4.11624 11.2105 3.92305 11.2105Z" fill="#FF5D5D"/>
<path d="M37.8585 38.3804C36.402 38.3804 35.217 37.1955 35.217 35.7389C35.217 34.2824 36.402 33.0974 37.8585 33.0974C39.3151 33.0974 40.5001 34.2824 40.5001 35.7389C40.5001 37.1955 39.3151 38.3804 37.8585 38.3804ZM37.8585 34.6068C37.2343 34.6068 36.7265 35.1147 36.7265 35.7389C36.7265 36.3632 37.2343 36.871 37.8585 36.871C38.4828 36.871 38.9906 36.3632 38.9906 35.7389C38.9906 35.1147 38.4828 34.6068 37.8585 34.6068Z" fill="#00D40B"/>
<path d="M29.8044 15.4799C29.6042 15.4799 29.4123 15.4004 29.2707 15.2588L27.1361 13.1241C26.8414 12.8293 26.8414 12.3516 27.1361 12.0568L29.2707 9.92214C29.5655 9.62752 30.0434 9.62752 30.338 9.92214L32.4727 12.0568C32.6143 12.1984 32.6938 12.3903 32.6938 12.5905C32.6938 12.7906 32.6143 12.9826 32.4728 13.1242L30.3381 15.2589C30.1965 15.4004 30.0046 15.4799 29.8044 15.4799ZM28.7371 12.5905L29.8044 13.6579L30.8718 12.5905L29.8044 11.5232L28.7371 12.5905Z" fill="#FFC504"/>
</g>
<defs>
<clipPath id="clip0_649_378">
<rect width="40" height="40" fill="white" transform="translate(0.5)"/>
</clipPath>
</defs>
</svg>
